# xmcd CD database file
#
# Track frame offsets:
#	150
#	17846
#	35688
#	49344
#	65866
#	82790
#	87614
#	113133
#	125919
#	142471
#	168462
#	180411
#	181840
#
# Disc length: 3004 seconds
#
# Revision: 1
# Processed by: cddbd v1.5.1PL2 Copyright (c) Steve Scherf et al.
# Submitted via: jetAudio 5
#
DISCID=c00bba0d
DTITLE=Hobo Blues Band - Vadászat
DYEAR=1900
DGENRE=
TTITLE0=Prológus
TTITLE1=A hajtó dala
TTITLE2=A vadászok gyülekezõje
TTITLE3=Mesél az erdõ
TTITLE4=Fut a nyúl a mezõn
TTITLE5=A kerítés mögött fegyveresek fáklyával
TTITLE6=A vészbanyák dala
TTITLE7=A királyfi vágtat a réten
TTITLE8="Ott fogsz majd sírni, ahol senki sem lát"
TTITLE9=A fattyú reménytelen szerelme és halála
TTITLE10=A remete története
TTITLE11=Számûzött lovag
TTITLE12=A vadászok kara
EXTD=
EXTT0=
EXTT1=
EXTT2=
EXTT3=
EXTT4=
EXTT5=
EXTT6=
EXTT7=
EXTT8=
EXTT9=
EXTT10=
EXTT11=
EXTT12=
PLAYORDER=
